<svg xmlns="http://www.w3.org/2000/svg" viewBox="0 0 64 64"><g data-name="corona virus"><path fill="#008c3c" d="M32 48a1 1 0 0 0-1 1v7a1 1 0 0 0 2 0V49A1 1 0 0 0 32 48zM32 7a1 1 0 0 0-1 1v7a1 1 0 0 0 2 0V8A1 1 0 0 0 32 7zM56 31H49a1 1 0 0 0 0 2h7a1 1 0 0 0 0-2zM16 32a1 1 0 0 0-1-1H8a1 1 0 0 0 0 2h7A1 1 0 0 0 16 32zM44 21a1 1 0 0 0 .71-.29l5-5a1 1 0 0 0-1.42-1.42l-4.95 4.95a1 1 0 0 0 0 1.42A1 1 0 0 0 44 21zM19.27 43.31l-4.95 4.95a1 1 0 0 0 0 1.42 1 1 0 0 0 1.42 0l5-5a1 1 0 1 0-1.42-1.42zM44.73 43.31a1 1 0 1 0-1.42 1.42l4.95 5a1 1 0 0 0 1.42 0 1 1 0 0 0 0-1.42zM15.74 14.32a1 1 0 0 0-1.42 1.42l4.95 5A1 1 0 0 0 20 21a1 1 0 0 0 .71-.29 1 1 0 0 0 0-1.42z"/><circle cx="32" cy="32" r="18" fill="#5db77a"/><circle cx="40" cy="29" r="3" fill="#2fac66"/><circle cx="41" cy="38" r="3" fill="#2fac66"/><circle cx="28" cy="43" r="3" fill="#2fac66"/><circle cx="30" cy="34" r="3" fill="#2fac66"/><circle cx="23" cy="26" r="3" fill="#2fac66"/><circle cx="32" cy="20" r="3" fill="#2fac66"/><circle cx="32" cy="58" r="3" fill="#2fac66"/><circle cx="32" cy="6" r="3" fill="#2fac66"/><circle cx="58" cy="32" r="3" fill="#2fac66"/><circle cx="6" cy="32" r="3" fill="#2fac66"/><path fill="#2fac66" d="M48.26 11.49h0a3 3 0 1 0 4.25 0A3 3 0 0 0 48.26 11.49zM11.49 48.26h0a3 3 0 1 0 4.25 0A3.09 3.09 0 0 0 11.49 48.26zM11.49 11.49a3 3 0 0 0 0 4.25h0a3 3 0 0 0 4.25-4.25A3.09 3.09 0 0 0 11.49 11.49zM48.26 48.26a3 3 0 0 0 0 4.25h0a3 3 0 1 0 0-4.25z"/><path fill="#008c3c" d="M32.71 26.29l-.15-.12a.76.76 0 0 0-.18-.09L32.2 26A1 1 0 0 0 31 27a1.5 1.5 0 0 0 0 .2.64.64 0 0 0 .06.18.76.76 0 0 0 .09.18 1.58 1.58 0 0 0 .12.15 1 1 0 0 0 .33.21A.84.84 0 0 0 32 28l.2 0 .18-.06a.76.76 0 0 0 .18-.09l.15-.12A1.05 1.05 0 0 0 33 27a.84.84 0 0 0-.08-.38A.93.93 0 0 0 32.71 26.29zM36.71 34.29l-.15-.12-.18-.09a.6.6 0 0 0-.19-.06 1.27 1.27 0 0 0-.39 0 .64.64 0 0 0-.18.06l-.18.09-.15.12a1.15 1.15 0 0 0-.21.33A1 1 0 0 0 35 35a1 1 0 0 0 .29.71A1.05 1.05 0 0 0 36 36l.19 0a.6.6 0 0 0 .19-.06l.18-.09.15-.12A1 1 0 0 0 37 35a1 1 0 0 0-.08-.38A1.15 1.15 0 0 0 36.71 34.29zM24.92 34.62a.76.76 0 0 0-.09-.18l-.12-.15a1 1 0 0 0-1.09-.21 1 1 0 0 0-.33.21l-.12.15a.76.76 0 0 0-.09.18.64.64 0 0 0-.06.18 1.5 1.5 0 0 0 0 .2 1 1 0 0 0 .08.38 1.15 1.15 0 0 0 .21.33 1 1 0 0 0 .33.21.94.94 0 0 0 .76 0 1.15 1.15 0 0 0 .33-.21A1.05 1.05 0 0 0 25 35a1.5 1.5 0 0 0 0-.2A.64.64 0 0 0 24.92 34.62zM20.38 32.92a1 1 0 0 0 .33-.21A1.05 1.05 0 0 0 21 32a1 1 0 0 0-.08-.38.9.9 0 0 0-.54-.54 1 1 0 0 0-.76 0 1.15 1.15 0 0 0-.33.21 1 1 0 0 0-.21.33A1 1 0 0 0 19 32a1.05 1.05 0 0 0 .29.71 1.15 1.15 0 0 0 .33.21.94.94 0 0 0 .76 0zM21.71 38.29a1 1 0 0 0-1.09-.21.9.9 0 0 0-.54.54A1 1 0 0 0 20 39a1 1 0 1 0 2 0 1 1 0 0 0-.08-.38A1.15 1.15 0 0 0 21.71 38.29zM34.8 42a.64.64 0 0 0-.18.06l-.18.09-.15.12a1 1 0 0 0-.21.33A1 1 0 0 0 34 43a1 1 0 0 0 .29.71A1 1 0 1 0 34.8 42zM44.71 32.29a1 1 0 0 0-1.42 0A1 1 0 0 0 43 33a1.05 1.05 0 0 0 .29.71A1 1 0 0 0 44 34a1 1 0 0 0 1-1A1 1 0 0 0 44.71 32.29zM40.71 21.29l-.15-.12a.76.76 0 0 0-.18-.09L40.2 21a1 1 0 0 0-.91.27A1 1 0 0 0 40 23l.2 0 .18-.06a.76.76 0 0 0 .18-.09l.15-.12A1 1 0 0 0 41 22a1 1 0 0 0-.08-.38A1.15 1.15 0 0 0 40.71 21.29zM26.29 20.29a1 1 0 0 0-.21.33A1 1 0 0 0 26 21a1 1 0 0 0 .29.71 1.15 1.15 0 0 0 .33.21.94.94 0 0 0 .76 0 1.15 1.15 0 0 0 .33-.21 1 1 0 0 0-1.42-1.42z"/></g></svg>